<svg width="16" height="16" viewBox="0 0 16 16" fill="none" xmlns="http://www.w3.org/2000/svg">
<path d="M14.5 5.33332C14.5 5.60666 14.2733 5.83332 14 5.83332H2C1.72667 5.83332 1.5 5.60666 1.5 5.33332C1.5 5.05999 1.72667 4.83332 2 4.83332H2.68L2.93333 3.62666C3.17333 2.45999 3.67333 1.38666 5.66 1.38666H10.34C12.3267 1.38666 12.8267 2.45999 13.0667 3.62666L13.32 4.83332H14C14.2733 4.83332 14.5 5.05999 14.5 5.33332Z" fill="#323232"/>
<path d="M14.7866 9.10665C14.6866 8.00665 14.3933 6.83331 12.2533 6.83331H3.74664C1.60664 6.83331 1.31998 8.00665 1.21331 9.10665L0.839976 13.1666C0.793309 13.6733 0.959976 14.18 1.30664 14.56C1.65998 14.9466 2.15998 15.1666 2.69331 15.1666H3.94664C5.02664 15.1666 5.23331 14.5466 5.36664 14.14L5.49998 13.74C5.65331 13.28 5.69331 13.1666 6.29331 13.1666H9.70664C10.3066 13.1666 10.3266 13.2333 10.5 13.74L10.6333 14.14C10.7666 14.5466 10.9733 15.1666 12.0533 15.1666H13.3066C13.8333 15.1666 14.34 14.9466 14.6933 14.56C15.04 14.18 15.2066 13.6733 15.16 13.1666L14.7866 9.10665ZM5.99998 10.5H3.99998C3.72664 10.5 3.49998 10.2733 3.49998 9.99998C3.49998 9.72665 3.72664 9.49998 3.99998 9.49998H5.99998C6.27331 9.49998 6.49998 9.72665 6.49998 9.99998C6.49998 10.2733 6.27331 10.5 5.99998 10.5ZM12 10.5H9.99998C9.72664 10.5 9.49998 10.2733 9.49998 9.99998C9.49998 9.72665 9.72664 9.49998 9.99998 9.49998H12C12.2733 9.49998 12.5 9.72665 12.5 9.99998C12.5 10.2733 12.2733 10.5 12 10.5Z" fill="#323232"/>
</svg>
