<svg width="92" height="32" viewBox="0 0 92 32" fill="none" xmlns="http://www.w3.org/2000/svg">
<path d="M86.043 32H0L0.988039 27.4447L87.0368 27.4438L86.043 32Z" fill="#FCCE06"/>
<path d="M65.4139 19.6134C64.645 18.8035 65.1052 17.1914 65.4987 15.3726L66.8411 9.19184H72.3625L73.3629 4.59085H67.8377L68.8172 0.000343323H63.6131L60.2021 15.7956C59.6886 18.1556 59.4961 20.0012 60.5413 21.9896C61.5151 23.8371 64.8374 25.6016 69.044 24.4869L69.9739 20.2175C67.1212 20.5624 65.976 20.1994 65.4139 19.6134Z" fill="#F9F9F9"/>
<path d="M21.3398 -1.90735e-06L18.8559 11.4077H9.72251L12.1997 -1.90735e-06H6.94705L1.63623 24.4865H6.88512L8.71922 16.002H17.8564L16.0166 24.4865H21.2226L26.5391 -1.90735e-06H21.3398Z" fill="#F9F9F9"/>
<path d="M51.3283 6.32129C49.5066 7.81049 48.4709 9.75989 47.8002 12.8383L45.2715 24.4871H50.4804L52.5793 14.8268C53.0757 12.5668 53.4549 11.1538 54.322 10.2839C55.5149 9.09103 57.2432 9.02434 59.3184 9.19203L60.3207 4.59104C56.6601 3.68017 53.4635 4.57388 51.3283 6.32129Z" fill="#F9F9F9"/>
<path d="M91.9835 4.59146H75.7261L74.7295 9.1915H84.1611L72.3647 20.0637L71.4053 24.4865H87.6645L88.6669 19.8894H79.179L91.0345 8.96855L91.9835 4.59146Z" fill="#F9F9F9"/>
<path d="M37.1123 4.22553C35.3534 4.22553 32.9467 4.75814 30.5819 6.5751C25.252 10.6692 22.6052 24.8476 34.0529 24.8476C37.0198 24.8476 40.3212 23.9291 42.6127 22.236L40.5413 18.8127C38.8082 20.1161 30.0826 22.9534 31.0011 16.0296H44.6421C44.6478 16.0162 46.3819 10.4796 43.8818 7.13152C41.7514 4.27603 37.8288 4.22553 37.1123 4.22553ZM40.4994 11.8183H32.1492C32.4427 10.7168 34.2158 8.00904 37.5096 8.30535C41.0511 8.62549 40.4994 11.8183 40.4994 11.8183Z" fill="#F9F9F9"/>
</svg>
